<?xml version="1.0" standalone="no"?>
<!DOCTYPE svg PUBLIC "-//W3C//DTD SVG 20010904//EN"
 "http://www.w3.org/TR/2001/REC-SVG-20010904/DTD/svg10.dtd">
<svg version="1.0" xmlns="http://www.w3.org/2000/svg"
 width="1080.000000pt" height="1080.000000pt" viewBox="0 0 1080.000000 1080.000000"
 preserveAspectRatio="xMidYMid meet">
<metadata>
Created by potrace 1.14, written by Peter Selinger 2001-2017
</metadata>
<g transform="translate(0.000000,1080.000000) scale(0.100000,-0.100000)"
fill="#000000" stroke="none">
<path d="M1493 8752 c-101 -2 -134 -6 -143 -17 -10 -12 -51 -15 -231 -15
l-219 0 0 -3030 0 -3030 218 0 c161 0 221 -3 230 -12 10 -10 289 -14 1307 -16
l1295 -4 0 1761 c0 969 2 1761 5 1761 9 0 127 -141 1003 -1190 218 -261 399
-477 402 -480 3 -3 230 -275 505 -605 275 -330 506 -608 515 -617 8 -9 123
-147 255 -307 l240 -289 220 -5 c121 -2 247 -9 280 -14 36 -6 645 -11 1548
-12 l1487 -2 0 3059 0 3060 -27 3 c-16 2 -596 4 -1289 4 -1188 0 -1263 -1
-1281 -17 -17 -16 -44 -18 -236 -18 l-217 0 -1 -1672 c0 -920 0 -1699 1 -1732
1 -35 -2 -56 -8 -52 -10 6 -185 213 -968 1146 -251 300 -557 664 -680 810
-316 376 -782 932 -1032 1230 -118 140 -225 268 -239 283 l-24 28 -1392 -3
c-766 -2 -1451 -4 -1524 -6z m2909 -65 c15 -15 31 -35 263 -312 92 -110 179
-214 194 -230 14 -17 71 -84 125 -150 55 -66 102 -122 105 -125 4 -3 51 -59
106 -125 55 -66 110 -131 121 -145 12 -14 98 -115 190 -225 92 -110 224 -267
294 -350 69 -82 173 -206 230 -275 58 -69 107 -127 110 -130 3 -3 50 -59 105
-125 55 -66 111 -133 126 -150 15 -16 61 -70 102 -120 95 -115 402 -482 431
-515 11 -14 68 -81 126 -150 58 -69 115 -136 126 -150 12 -14 63 -74 113 -134
l91 -109 0 -259 c0 -142 -3 -258 -8 -258 -9 0 -11 2 -146 165 -55 66 -103 122
-106 125 -3 3 -50 59 -105 125 -56 66 -254 302 -441 525 -401 477 -516 615
-712 850 -80 96 -149 177 -152 180 -3 3 -51 59 -105 125 -55 66 -102 122 -105
125 -3 3 -25 30 -50 60 -25 30 -49 60 -55 66 -23 25 -68 79 -239 284 -98 118
-191 229 -205 245 -15 17 -132 156 -261 310 -128 154 -247 296 -264 316 -17
19 -40 46 -51 60 -11 13 -105 124 -208 247 -103 123 -187 228 -187 233 0 5 89
9 214 9 166 0 218 -3 228 -13z m5948 -2992 l0 -3005 -225 0 -225 0 0 2999 c0
1649 3 3001 7 3005 3 3 105 6 225 6 l218 0 0 -3005z m-6800 950 c41 -50 80
-95 85 -101 6 -6 48 -57 95 -113 47 -57 102 -122 122 -145 l37 -41 1 -1783 0
-1783 -224 2 -224 2 -1 2046 c-1 1941 0 2045 17 2026 9 -11 51 -61 92 -110z"/>
</g>
</svg>
